<svg fill="none" height="24" viewBox="0 0 24 24" width="24" xmlns="http://www.w3.org/2000/svg"><path d="m7 21.3836c.30617.3972.76976.6164 1.24897.6164h7.50103c.4792 0 .9438-.2364 1.25-.62l4.6537-5.969c.3062-.3973.4126-.9042.3062-1.3973l-1.664-7.43836c-.1065-.49315-.426-.89041-.8652-1.10959l-6.7357-3.30137c-.213-.10959-.4526-.16438-.6922-.16438s-.4792.05479-.6922.16438l-6.73561 3.31507c-.43928.21918-.75876.61644-.86525 1.10959l-1.66394 7.43836c-.11981.4931 0 1 .30616 1.3973z" fill="#326de6"/><path clip-rule="evenodd" d="m18.773 13.6118c.1402.0032.2801.0145.419.0336.0235.0043.0539.0119.0825.0191.0159.004.0313.0078.0446.0109.0605.008.1186.0285.1707.0602s.097.0738.1318.1238c.0349.05.0588.1066.0704.1664.0116.0597.0106.1212-.003.1805-.0135.0594-.0394.1152-.0759.164-.0364.0488-.0827.0895-.1358.1194-.0531.03-.1119.0485-.1727.0545-.0607.006-.122-.0007-.18-.0197l-.0062-.0009-.0041-.0014-.0045-.0015c-.0136-.003-.0284-.0059-.0433-.0089-.0248-.005-.0498-.01-.0696-.0151-.1335-.0428-.2645-.0932-.3922-.151-.2462-.099-.5015-.1739-.7622-.2235-.0902-.0028-.1779.0297-.2444.0905-.032-.0065-.1305-.0236-.187-.0326-.4226 1.3258-1.3192 2.4505-2.5193 3.1601.0205.0601.0448.1188.0728.1759-.0446.078-.0566.1703-.0336.2571.1063.2426.2361.4743.3875.6918.0848.1111.163.2271.2344.3473.0119.0225.0265.0533.0399.0815l.017.0358c.0315.0524.0516.1108.0591.1715.0074.0606.0021.1221-.0157.1806-.0178.0584-.0477.1125-.0878.1588-.04.0462-.0893.0836-.1447.1097s-.1156.0404-.1769.0419c-.0612.0015-.1221-.0098-.1787-.0332s-.1077-.0583-.15-.1025c-.0422-.0443-.0747-.0968-.0954-.1543l-.0144-.0293c-.014-.0282-.0292-.0588-.0396-.0825-.05-.1306-.0923-.2639-.1269-.3994-.0759-.2534-.1764-.4988-.3001-.7327-.0538-.0724-.1339-.121-.2232-.1352-.0069-.0121-.0237-.0425-.0422-.0759-.0179-.0323-.0373-.0674-.051-.0917-1.2999.4909-2.7356.4872-4.03303-.0102l-.0991.1786c-.07061.011-.13626.0429-.18837.0917-.14903.2439-.26295.5074-.33842.7829-.03424.1354-.07636.2688-.12613.3994-.00923.021-.0226.0477-.03539.0731-.0066.0132-.01303.026-.01867.0376v.001l-.00072.0008c-.02071.0575-.05326.11-.09556.1542s-.09341.0791-.15003.1024c-.05663.0233-.11752.0345-.17876.0329-.06124-.0015-.12147-.0159-.17682-.0421-.05534-.0262-.10458-.0636-.14454-.1099s-.06975-.1004-.08746-.1589-.02295-.12-.01538-.1806c.00758-.0606.0278-.119.05935-.1714.00612-.0126.01296-.0273.02002-.0426.01221-.0263.02509-.0541.03611-.0749.07133-.1204.14957-.2367.23434-.3481.15419-.2232.28665-.4605.39559-.7088.01155-.0842-.00202-.1699-.03904-.2465l.07963-.1899c-1.19625-.7039-2.0928-1.82-2.52054-3.1377l-.19055.0326c-.0738-.0524-.16083-.083-.25122-.0885-.26065.0497-.51584.1246-.76196.2235-.12773.0574-.25862.1074-.39206.1499-.0201.0054-.04572.0108-.07096.0162-.01454.0031-.02895.0061-.04212.0092l-.00435.0013-.00393.0012-.00653.0011c-.058.019-.11935.0257-.18011.0197s-.1196-.0245-.17275-.0545-.09945-.0706-.13592-.1195c-.03647-.0488-.06233-.1047-.0759-.164-.01357-.0594-.01456-.1209-.00292-.1807.01165-.0597.03567-.1164.07055-.1664s.07983-.0921.13199-.1238c.05215-.0316.11036-.0521.17089-.06l.00622-.0019.00383-.0008.00812-.002c.03514-.0088.07748-.0193.10859-.025.139-.0193.279-.0305.4193-.0337.26471-.0174.52708-.0605.78339-.1288.07592-.0481.1401-.1126.18785-.1886l.18298-.0531c-.19861-1.3752.11892-2.7751.89172-3.93122l-.1399-.12473c-.00519-.09032-.03565-.17738-.08792-.25132-.20125-.17259-.41892-.32517-.64991-.45556-.12475-.06351-.24574-.13411-.36235-.21147-.02024-.01474-.04554-.03561-.06909-.05505l-.0212-.01744-.00674-.00475c-.09941-.0712-.16651-.17873-.18665-.29911s.00832-.24382.07916-.34334c.04184-.05113.09518-.09171.15569-.11844.0605-.02673.12648-.03886.19257-.03541.11123.00476.218.04493.30466.11461l.0309.02431c.02335.01828.04807.03763.06624.05314.10163.09595.19765.19765.28757.3046.17863.19563.37597.37342.58923.53083.07989.04187.17304.05088.25951.02509.05219.03793.10487.07517.15802.11173.76793-.8139 1.76229-1.38037 2.85548-1.62669.2602-.05875.5242-.09923.7901-.12111l.0103-.18442c.0679-.06009.1171-.13826.1419-.2253.0096-.26439-.0067-.52907-.0487-.79031-.0278-.13695-.0477-.27536-.0596-.41457-.0008-.02182-.0002-.04943.0004-.07633l.0006-.03519-.0005-.00574c-.0002-.00213-.0005-.00426-.0005-.00644-.0062-.06092.0005-.12245.0196-.18063.0191-.05819.0503-.11172.0915-.15716.0411-.04544.0914-.08176.1475-.10664.0561-.02487.1168-.03774.1782-.03776.0614-.00003.1222.01277.1783.03759s.1064.0611.1476.1065.0724.0989.0916.15707c.0192.05816.0259.11969.0198.18061 0 .01401.0003.02981.0006.04594.0005.02749.001.05594.0001.07806-.0118.13912-.0317.27744-.0595.41426-.0422.26129-.0588.52604-.0495.79053.0172.08838.0684.16656.1426.21786l.0005.01071c.002.0402.0064.13131.01.18383 1.3817.12528 2.6708.74634 3.6278 1.7478l.1663-.11843c.0893.01528.1812.00534.2651-.0287.2132-.15772.4106-.33574.5892-.53156.0903-.10702.1868-.20872.2889-.3046.0198-.01717.0476-.03873.0728-.05831l.0241-.01882c.0439-.04307.0963-.07646.154-.098.0576-.02155.1192-.03077.1807-.02707.0614.00371.1214.02025.176.04857.0547.02831.1027.06776.1411.11578.0383.04803.0661.10355.0816.16298.0154.05943.0182.12143.008.18199-.0101.06055-.0329.11831-.0669.16951-.0339.05121-.0783.09472-.1302.12772-.0107.00855-.0226.01835-.0348.02837-.0214.01756-.0435.03579-.0614.04907-.1169.07735-.2381.14789-.3632.21126-.231.1304-.4487.2829-.65.45536-.0586.06843-.088.15699-.082.24678-.0122.01122-.0401.03608-.0706.0632-.0298.0265-.0619.05516-.0842.07537.7749 1.15199 1.0988 2.54759.9102 3.92189l.1765.0513c.044.0792.1093.1447.1884.1891.2565.0681.5191.111.7839.1283zm-7.7864-5.55423c.154-.03455.3096-.06123.4663-.07992l-.1299 2.28575-.0096.0046c-.0029.0694-.0247.1367-.0629.1947-.0383.0581-.0917.1047-.1544.1349s-.1325.0429-.2019.0367-.1358-.031-.1922-.0719l-.0036.0021-1.87993-1.3291c.59848-.58644 1.34943-.9944 2.16813-1.17783zm2.3121 2.49953 1.8678-1.32036c-.7108-.69445-1.6309-1.13682-2.6185-1.25909l.1298 2.28225.002.001c.0032.0694.0252.1367.0637.1946.0384.0579.0919.1044.1547.1345.0628.03.1326.0425.2019.0362.0694-.0063.1358-.0313.1921-.0722zm3.2106 2.3657-2.2111-.635-.0021-.0093c-.0671-.0185-.128-.0547-.1761-.1049s-.0817-.1125-.0972-.1802-.0124-.1383.0091-.2044c.0216-.0661.0606-.1251.113-.1708l-.0008-.0044 1.7068-1.5231c.5227.8475.7539 1.8418.6584 2.8321zm-2.9442 1.22.8832 2.1276c.8449-.5377 1.4861-1.3407 1.822-2.2824l-2.2758-.3835-.0039.0048c-.0291-.0057-.0588-.0079-.0885-.0065-.0513.0027-.1015.0157-.1476.0382-.0894.0431-.1587.1189-.1935.2116-.0348.0928-.0323.1954.0068.2864zm-.5502 2.7214c-.8178.187-1.6718.1433-2.4661-.1263l1.1094-2.0002h.0018c.033-.0612.082-.1122.1417-.1479.0598-.0356.128-.0544.1977-.0545.0696-.0001.1379.0187.1977.0542s.1088.0865.1419.1475h.0083l1.1122 2.0036c-.1443.048-.2925.0891-.4446.1236zm-3.45424-.6023.87414-2.1061-.0065-.0084c.0249-.058.0351-.1212.0297-.1841-.0054-.0628-.0262-.1234-.0607-.1763-.0344-.0529-.0814-.0966-.1367-.1271-.0554-.0305-.1174-.047-.1807-.0479-.0254-.0003-.0507.0019-.0756.0067l-.0038-.0051-2.25579.3821c.33863.9341.97696 1.7307 1.81595 2.2662zm-1.42389-6.1723 1.71633 1.5307-.00186.0093c.05261.0456.0918.1046.1134.1707.02161.0662.02481.1369.00926.2047-.01554.0677-.04924.13-.0975.1802-.04827.0502-.10929.0864-.17656.1047l-.00176.0074-2.20003.633c-.10962-.9913.11512-1.9909.63872-2.8407zm4.21403 1.6488h-.7029l-.4381.5439.157.6797.6331.3035.6313-.3029.1567-.6794z" fill="#fff" fill-rule="evenodd"/></svg>