<svg id="logo_full" xmlns="http://www.w3.org/2000/svg" xml:space="preserve" width="860px" height="300px" version="1.1" style="shape-rendering:geometricPrecision; text-rendering:geometricPrecision; image-rendering:optimizeQuality; fill-rule:evenodd; clip-rule:evenodd"
viewBox="0 0 8600 3000"
 xmlns:xlink="http://www.w3.org/1999/xlink">
 <defs>
  <style type="text/css">
   <![CDATA[
    #logo_full .str0 {stroke:#44286B;stroke-width:100;stroke-linecap:round;stroke-linejoin:round}
    #logo_full .fil0 {fill:none}
    #logo_full .fil1 {fill:#44286B}
    #logo_full .fil2 {fill:white;fill-rule:nonzero}
	
	/*#logo_full #wave_logo,
	#logo_full #front_all,
	#logo_full #wave_logo_2,*/  
	#logo_full #front_logo  
	{
	-moz-transform-origin: 1500px 1500px;
	-ms-transform-origin:  1500px 1500px;
	-o-transform-origin: 1500px 1500px;
	-webkit-transform-origin:  1500px 1500px;
	transform-origin:1500px 1500px;
	}
	
	
	#logo_full .fil3 {fill:#191236;fill-rule:nonzero}
	
	#chrt_r,#r_wrp{transform-origin:3325px 1547px;}
	#chrt_s{transform-origin:4050px 1547px;}
	#chrt_v{transform-origin:4893px 1547px;}
	#chrt_p{transform-origin:5826px 1547px;}
	#chrt_i{transform-origin:6493px 1547px;}
	#chrt_f{transform-origin:7039px 1547px;}
	#chrt_y{transform-origin:7828px 1547px;}
	/*#fr_rtt{transform-origin:1500px 1500px;}*/
   ]]>
  </style>

  

 </defs>
 

	<path id="wave_logo" transform="scale(0)" class="fil0 str0" d="M725 2307c-563,-538 -569,-1016 -33,-1578 539,-565 1012,-578 1577,-38l1 1c565,541 579,1012 39,1579 -538,564 -1015,578 -1580,40l-4 -4z"/>
  
  <path id="wave_logo_2" transform="scale(0)" style="opacity:0" class="fil0 str0" d="M1518 2391c-620,14 -892,-251 -907,-870 -15,-621 244,-895 867,-909l1 0c622,-14 896,244 911,867 14,621 -247,897 -868,912l-4 0z"/>
	
	
	<g id="front_all" transform="scale(1)" >
		<g id="fr_rtt" transform="rotate(225,1500,1500)" >
	<path id="back_logo" class="fil1" d="M846 2148c-460,-461 -464,-831 4,-1298 466,-466 832,-467 1298,-1l1 1c468,468 468,834 2,1300 -468,468 -838,464 -1301,2l-4 -4z"/>

	  

	 <path id="front_logo" class="fil2" d="M1273 1962l144 0c37,0 57,-23 57,-58l0 -567c0,-37 32,-69 69,-69l184 0c35,0 58,-20 58,-57l0 -115c0,-38 -23,-58 -58,-58l-198 0c-173,0 -314,141 -314,314l0 552c0,35 20,58 58,58l0 0z"/>
	 </g>
    </g>
	
	
	
	<!-- start -->
	<!-- wave -->
	
		<animateTransform id="wv_scl" xlink:href="#wave_logo" attributeName="transform" type="translate" attributeType="XML" fill="freeze" dur="0.6s" repeatCount="1" 
			values="656, 656;-60,-60;60,60;-36,-36;0,0"  begin="bck_scl_end.end-0.2s"   />  
			
	
   <animateTransform  xlink:href="#wave_logo" attributeName="transform" type="scale" attributeType="XML" begin="wv_scl.begin" fill="freeze" dur="0.6s" 	values="0.7;1.05;0.95;1.03;1"  additive="sum" />  

		
	<animate xlink:href="#wave_logo" attributeName="opacity" attributeType="CSS" begin="wv_scl.begin" values="0.5;1" dur="0.3s" fill="freeze"/>
			
  
	<animateTransform id="wv_scl_2" xlink:href="#wave_logo" attributeName="transform" type="translate" attributeType="XML" fill="freeze" dur="0.3s" repeatCount="1" 
			values="0, 0;570,570"  begin="bck_scl_ch.begin" />  	
	 <animateTransform  xlink:href="#wave_logo" attributeName="transform" type="scale" attributeType="XML" fill="freeze" dur="0.3s" repeatCount="1" values="1;0.6" begin="bck_scl_ch.begin" additive="sum"  />  


	 
   <animate xlink:href="#wave_logo" attributeName="opacity" attributeType="CSS" begin="wv_scl_2.begin" values="1;0" dur="0.3s" fill="freeze"/>

	<!-- back -->
	
	<animateTransform id="bck_scl" xlink:href="#front_all" attributeName="transform" type="translate" attributeType="XML" fill="freeze" dur="0.3s" 
			values="400,400;-120,-120;0,0" begin="wv_scl.begin+0.2s"   /> 
	<animateTransform xlink:href="#fr_rtt" attributeName="transform" type="rotate" attributeType="XML" fill="freeze" dur="0.00000001s" 
				repeatCount="1" values="0,1500,1500;0,1500,1500" begin="bck_scl.begin" />
			<animateTransform  xlink:href="#front_all" attributeName="transform" type="scale" attributeType="XML" fill="freeze" dur="0.3s" 
				values="0.7;1.1;1"  begin="bck_scl.begin"  additive="sum" /> 	
	<animate xlink:href="#front_all" attributeName="opacity" attributeType="CSS" begin="bck_scl.begin" values="0.3;1" dur="0.3s" fill="freeze"/>

  
  <!-- change -->
		
		<!-- back -->
			<animateTransform id="bck_scl_ch" xlink:href="#front_all" attributeName="transform" type="translate" attributeType="XML" fill="freeze" dur="0.6s" 
			values="0,0;400,400;0,0"  begin="bck_scl.end+0.3s" /> 
		
				<animateTransform  xlink:href="#front_all" attributeName="transform" type="scale" attributeType="XML" fill="freeze" dur="0.6s" repeatCount="1" 
						values="1;0.7;1"  begin="bck_scl_ch.begin" additive="sum"  /> 
						
				<animateTransform id="bck_rtt" xlink:href="#fr_rtt" attributeName="transform" type="rotate" attributeType="XML" fill="freeze" dur="0.3s" 
				repeatCount="1" values="0,1500,1500;225,1500,1500" begin="bck_scl_ch.begin+0.1s" />
				
				
				
		<!-- wave2 --><animateTransform id="wv_2_tr" xlink:href="#wave_logo_2" attributeName="transform" type="translate" attributeType="XML" fill="freeze" dur="0.6s" 
			values="500,500;-556,-556" calcMode="spline" keySplines="0.33, 1, 0.68, 1" begin="bck_scl_ch.end-0.25s"  />
			<animateTransform id="wv_scl_3" xlink:href="#wave_logo_2" attributeName="transform" type="scale" attributeType="XML" fill="freeze" dur="0.6s" repeatCount="1" 
					values="0.5;1.4" calcMode="spline" keySplines="0.33, 1, 0.68, 1" begin="wv_2_tr.begin" additive="sum"/>  
					
				<animate xlink:href="#wave_logo_2" attributeName="opacity" attributeType="CSS" calcMode="spline" keySplines="0.61, 1, 0.88, 1" begin="wv_scl_3.begin" values="0.8;0" dur="0.6s" fill="freeze"/>
		
		
		<g id="logo_chrts">
		  <path id="chrt_r" class="fil3" d="M3097 2011l145 0c37,0 57,-23 57,-58l0 -569c0,-38 32,-69 69,-69l185 0c34,0 57,-21 57,-58l0 -116c0,-37 -23,-57 -57,-57l-199 0c-173,0 -314,141 -314,314l0 555c0,35 20,58 57,58l0 0z"/>
		  <path id="chrt_s" class="fil3" d="M4054 2031c234,0 381,-113 381,-301 0,-352 -502,-248 -502,-398 0,-46 43,-75 110,-75 51,0 86,17 112,58 14,20 23,37 55,37l152 0c32,0 58,-20 49,-58 -28,-150 -167,-234 -371,-234 -219,0 -369,102 -369,292 0,347 501,251 501,404 0,47 -46,78 -121,78 -60,0 -106,-23 -124,-69 -11,-29 -20,-43 -57,-43l-153 0c-32,0 -58,23 -49,60 29,159 173,249 386,249l0 0z"/>
		  <path id="chrt_v" class="fil3" d="M4786 2011l210 0c35,0 58,-18 67,-49l259 -815c12,-37 -9,-63 -43,-63l-162 0c-31,0 -54,14 -60,52l-150 583 -17 0 -153 -583c-6,-38 -26,-52 -60,-52l-170 0c-35,0 -55,26 -44,63l260 815c8,31 31,49 63,49l0 0z"/>
		  <path id="chrt_p"  class="fil3" d="M5973 1652c0,84 -57,136 -144,136 -89,0 -150,-58 -150,-136l0 -213c0,-75 61,-136 150,-136 87,0 144,55 144,139l0 210zm-31 -592c-121,0 -211,64 -248,154l-15 0 0 -73c0,-37 -20,-57 -57,-57l-144 0c-38,0 -58,20 -58,57l0 1144c0,37 20,58 58,58l144 0c37,0 57,-21 57,-58l0 -404 15 0c37,86 127,150 248,150 173,0 291,-121 291,-301l0 -366c0,-182 -118,-304 -291,-304l0 0z"/>
		  <path id="chrt_i"  class="fil3" d="M6495 965c92,0 153,-60 153,-150 0,-90 -61,-150 -153,-150 -95,0 -156,60 -156,150 0,87 61,150 156,150l0 0zm-72 1046l144 0c34,0 55,-23 55,-58l0 -812c0,-37 -21,-57 -55,-57l-144 0c-38,0 -58,20 -58,57l0 812c0,35 20,58 58,58l0 0z"/>
		  <path id="chrt_f" class="fil3" d="M7241 928l43 0c38,0 58,-21 58,-58l0 -101c0,-38 -20,-58 -58,-58l-112 0c-170,0 -282,104 -282,263l0 110 -95 0c-38,0 -58,20 -58,57l0 116c0,37 20,58 58,58l95 0 0 638c0,35 23,58 57,58l144 0c38,0 58,-23 58,-58l0 -638 135 0c38,0 58,-21 58,-58l0 -116c0,-37 -20,-57 -58,-57l-135 0 0 -64c0,-58 35,-92 92,-92l0 0z"/>
		  <path id="chrt_y" class="fil3" d="M7535 2343l127 0c147,0 239,-67 282,-202l317 -994c12,-37 -8,-63 -43,-63l-161 0c-32,0 -55,14 -61,52l-150 583 -26 0 -152 -583c-6,-38 -26,-52 -61,-52l-170 0c-34,0 -55,26 -43,63l251 794c11,29 26,41 54,41l29 0 -29 78c-14,49 -49,69 -103,69l-61 0c-37,0 -57,20 -57,55l0 101c0,37 20,58 57,58l0 0z"/>
		</g>
	


				
				
<animateTransform id="bck_scl_end" xlink:href="#front_all" attributeName="transform" type="translate" attributeType="XML" fill="freeze" 
dur="0.6s" values="-0,-0;1500,1500" begin="60s;bck_scl_ch.begin+60s"  />  

<animateTransform  xlink:href="#front_all" attributeName="transform" type="scale" attributeType="XML" fill="freeze" dur="0.6s" repeatCount="1" values="1;0"  begin="bck_scl_end.begin" additive="sum"  />
 

<animateTransform id="bck_rtt_end" xlink:href="#fr_rtt" attributeName="transform" type="rotate" attributeType="XML" fill="freeze" dur="0.6s" repeatCount="1" values="225,1500,1500;450,1500,1500" begin="bck_scl_end.begin"  />
	
	<animate xlink:href="#front_all" attributeName="opacity" attributeType="CSS" begin="bck_scl_end.begin" values="1;0" dur="0.2s" fill="freeze"/>
  

  

</svg>
