<svg height="48pt" viewBox="0 0 48 48" width="48pt" xmlns="http://www.w3.org/2000/svg" xmlns:xlink="http://www.w3.org/1999/xlink"><linearGradient id="a" gradientUnits="userSpaceOnUse" x1=".998252" x2="46.998252" y1="24" y2="24"><stop offset="0" stop-color="#00c6ff"/><stop offset=".98695652174" stop-color="#0072ff"/></linearGradient><path d="m39.27 29.27c1.104 0 2 .896 2 2 0 1.104-.896 2-2 2h-9.36c-.54 0-1.05-.21-1.43-.6-.83-.85-1.54-1.82-2.11-2.87-.61-1.12-1.09-2.32-1.43-3.55-.39-1.37-.66-2.78-.82-4.2-.19-1.6-.27-3.21-.27-4.82-.79.77-1.48 1.66-2.02 2.62-.58 1.03-1.01 2.13-1.28 3.27-.3 1.3-.44 2.64-.44 3.97.01 1.3.12 2.59.32 3.87.09.58-.07 1.17-.45 1.61-.38.45-.94.7-1.53.7h-12.45c-2.76 0-5-2.24-5-5v-22.27c0-2.76 2.24-5 5-5h36c2.76 0 5 2.24 5 5v36c0 2.76-2.24 5-5 5h-36c-2.76 0-5-2.24-5-5v-.82c0-1.656.896-3 2-3 1.104 0 2 1.344 2 3 0 1.004 1.344 1.82 3 1.82h32c1.656 0 3-1.344 3-3v-32c0-1.656-1.344-3-3-3h-32c-1.656 0-3 1.344-3 3v19.27c0 1.104.896 2 2 2h9.2c-.05-.72-.08-1.44-.09-2.16-.01-1.65.18-3.29.55-4.9.35-1.51.92-2.97 1.68-4.32.76-1.34 1.71-2.56 2.83-3.63 2.04-1.94 4.48-3.39 6.208-3.944.525-.169.894.138.823.686-.181 1.398-.341 3.808-.351 6.218 0 1.46.08 2.93.24 4.38.14 1.21.37 2.4.7 3.57.27.95.64 1.87 1.1 2.74.26.48.57.94.91 1.36z" fill="url(#a)"/></svg>