<svg id="wave" style="transform:rotate(180deg); transition: 0.3s" viewBox="0 0 1440 180" version="1.1" xmlns="http://www.w3.org/2000/svg"><defs><linearGradient id="sw-gradient-0" x1="1" x2="0" y1="0" y2="0"><stop stop-color="rgba(38, 42, 130, 1)" offset="0%"></stop><stop stop-color="rgba(6, 10, 78, 1)" offset="100%"></stop></linearGradient></defs><path style="transform:translate(0, 0px); opacity:1" fill="url(#sw-gradient-0)" d="M0,90L20,78C40,66,80,42,120,42C160,42,200,66,240,81C280,96,320,102,360,102C400,102,440,96,480,96C520,96,560,102,600,93C640,84,680,60,720,60C760,60,800,84,840,78C880,72,920,36,960,45C1000,54,1040,108,1080,132C1120,156,1160,150,1200,141C1240,132,1280,120,1320,117C1360,114,1400,120,1440,108C1480,96,1520,66,1560,45C1600,24,1640,12,1680,21C1720,30,1760,60,1800,78C1840,96,1880,102,1920,114C1960,126,2000,144,2040,129C2080,114,2120,66,2160,42C2200,18,2240,18,2280,42C2320,66,2360,114,2400,111C2440,108,2480,54,2520,45C2560,36,2600,72,2640,87C2680,102,2720,96,2760,87C2800,78,2840,66,2860,60L2880,54L2880,180L2860,180C2840,180,2800,180,2760,180C2720,180,2680,180,2640,180C2600,180,2560,180,2520,180C2480,180,2440,180,2400,180C2360,180,2320,180,2280,180C2240,180,2200,180,2160,180C2120,180,2080,180,2040,180C2000,180,1960,180,1920,180C1880,180,1840,180,1800,180C1760,180,1720,180,1680,180C1640,180,1600,180,1560,180C1520,180,1480,180,1440,180C1400,180,1360,180,1320,180C1280,180,1240,180,1200,180C1160,180,1120,180,1080,180C1040,180,1000,180,960,180C920,180,880,180,840,180C800,180,760,180,720,180C680,180,640,180,600,180C560,180,520,180,480,180C440,180,400,180,360,180C320,180,280,180,240,180C200,180,160,180,120,180C80,180,40,180,20,180L0,180Z"></path></svg>