<?xml version="1.0" encoding="UTF-8"?><svg id="Layer_2" xmlns="http://www.w3.org/2000/svg" viewBox="0 0 1440 96"><defs><style>.cls-1{fill-rule:evenodd;}</style></defs><g id="Layer_1-2"><path class="cls-1" d="m1440,96l-.07-43.84c-16.39-12.53-28.43-18.8-36.12-18.82-36.1-.1-39.79,36.6-70.27,32.99-30.48-3.61-46.63-43.16-96.6-60.58-67.37-23.49-138.23,31.81-171.99,44.98-40,15.6-136.87,50.02-252.99,28.68-66.25-12.18-172.47-49.99-223.64-51.58-92.58-2.87-222.51,29.89-312.06,38.5-51.5,4.95-99.66-1.5-144.46-14.67-24.48-7.19-53.16-23.69-84.03-23.84-8.4-.04-24.32,1.31-47.77,4.05v64.13h1440Z"/></g></svg>