<svg id="wave" style="transform:rotate(180deg); transition: 0.3s" viewBox="0 0 1440 120" version="1.1" xmlns="http://www.w3.org/2000/svg"><defs><linearGradient id="sw-gradient-0" x1="0" x2="0" y1="1" y2="0"><stop stop-color="rgba(23, 24, 57, 1)" offset="0%"></stop><stop stop-color="rgba(23, 24, 57, 1)" offset="100%"></stop></linearGradient></defs><path style="transform:translate(0, 0px); opacity:1" fill="url(#sw-gradient-0)" d="M0,24L12.6,20C25.3,16,51,8,76,6C101.1,4,126,8,152,14C176.8,20,202,28,227,30C252.6,32,278,28,303,22C328.4,16,354,8,379,10C404.2,12,429,24,455,36C480,48,505,60,531,72C555.8,84,581,96,606,100C631.6,104,657,100,682,100C707.4,100,733,104,758,102C783.2,100,808,92,834,76C858.9,60,884,36,909,30C934.7,24,960,36,985,44C1010.5,52,1036,56,1061,60C1086.3,64,1112,68,1137,60C1162.1,52,1187,32,1213,30C1237.9,28,1263,44,1288,42C1313.7,40,1339,20,1364,24C1389.5,28,1415,56,1440,56C1465.3,56,1491,28,1516,22C1541.1,16,1566,32,1592,40C1616.8,48,1642,48,1667,44C1692.6,40,1718,32,1743,38C1768.4,44,1794,64,1806,74L1818.9,84L1818.9,120L1806.3,120C1793.7,120,1768,120,1743,120C1717.9,120,1693,120,1667,120C1642.1,120,1617,120,1592,120C1566.3,120,1541,120,1516,120C1490.5,120,1465,120,1440,120C1414.7,120,1389,120,1364,120C1338.9,120,1314,120,1288,120C1263.2,120,1238,120,1213,120C1187.4,120,1162,120,1137,120C1111.6,120,1086,120,1061,120C1035.8,120,1011,120,985,120C960,120,935,120,909,120C884.2,120,859,120,834,120C808.4,120,783,120,758,120C732.6,120,707,120,682,120C656.8,120,632,120,606,120C581.1,120,556,120,531,120C505.3,120,480,120,455,120C429.5,120,404,120,379,120C353.7,120,328,120,303,120C277.9,120,253,120,227,120C202.1,120,177,120,152,120C126.3,120,101,120,76,120C50.5,120,25,120,13,120L0,120Z"></path></svg>