  <svg id="wave" style="transform:rotate(180deg); transition: 0.3s" viewBox="0 0 1440 140" version="1.1" xmlns="http://www.w3.org/2000/svg">
            <defs>
                <linearGradient id="sw-gradient-0" x1="1" x2="0" y1="0" y2="0">
                
                    <stop stop-color="#252B83 " offset="40%"></stop>
                    <stop stop-color="#22388C " offset="45%"></stop>
                    <stop stop-color="#1E4E9B" offset="50%"></stop>
                     <stop stop-color="#1478B8" offset="70%"></stop>
                    <stop stop-color="#0B9FD3" offset="85%"></stop>


                    
                    <stop stop-color="rgba(5, 186, 230, 1)" offset="100%"></stop>
                </linearGradient></defs><path style="transform:translate(0, 0px); opacity:1" fill="url(#sw-gradient-0)" d="M0,84L15,79.3C30,75,60,65,90,58.3C120,51,150,47,180,37.3C210,28,240,14,270,14C300,14,330,28,360,32.7C390,37,420,33,450,39.7C480,47,510,65,540,79.3C570,93,600,103,630,107.3C660,112,690,112,720,95.7C750,79,780,47,810,37.3C840,28,870,42,900,42C930,42,960,28,990,28C1020,28,1050,42,1080,60.7C1110,79,1140,103,1170,109.7C1200,117,1230,107,1260,100.3C1290,93,1320,89,1350,86.3C1380,84,1410,84,1440,79.3C1470,75,1500,65,1530,63C1560,61,1590,65,1620,63C1650,61,1680,51,1710,58.3C1740,65,1770,89,1800,100.3C1830,112,1860,112,1890,112C1920,112,1950,112,1980,93.3C2010,75,2040,37,2070,35C2100,33,2130,65,2145,81.7L2160,98L2160,140L2145,140C2130,140,2100,140,2070,140C2040,140,2010,140,1980,140C1950,140,1920,140,1890,140C1860,140,1830,140,1800,140C1770,140,1740,140,1710,140C1680,140,1650,140,1620,140C1590,140,1560,140,1530,140C1500,140,1470,140,1440,140C1410,140,1380,140,1350,140C1320,140,1290,140,1260,140C1230,140,1200,140,1170,140C1140,140,1110,140,1080,140C1050,140,1020,140,990,140C960,140,930,140,900,140C870,140,840,140,810,140C780,140,750,140,720,140C690,140,660,140,630,140C600,140,570,140,540,140C510,140,480,140,450,140C420,140,390,140,360,140C330,140,300,140,270,140C240,140,210,140,180,140C150,140,120,140,90,140C60,140,30,140,15,140L0,140Z"></path></svg>