
   <svg xmlns:xlink="http://www.w3.org/1999/xlink" 
            id="wave" style="transform:rotate(180deg); transition: 0.3s" 
            viewBox="0 0 1440 120" version="1.1" xmlns="http://www.w3.org/2000/svg">
            <defs>
                <linearGradient id="sw-gradient-0" x1="0" x2="0" y1="1" y2="0">
                    <stop stop-color="rgba(144, 45, 136, 1)" offset="0%"/>
                    <stop stop-color="rgba(144, 45, 136, 1)" offset="100%"/>
                </linearGradient>
            </defs>
            <path style="transform:translate(0, 0px); opacity:1" fill="rgba(144, 45, 136, 1)" d="M0,12L12.6,14C25.3,16,51,20,76,22C101.1,24,126,24,152,20C176.8,16,202,8,227,6C252.6,4,278,8,303,26C328.4,44,354,76,379,86C404.2,96,429,84,455,66C480,48,505,24,531,24C555.8,24,581,48,606,50C631.6,52,657,32,682,26C707.4,20,733,28,758,36C783.2,44,808,52,834,54C858.9,56,884,52,909,58C934.7,64,960,80,985,80C1010.5,80,1036,64,1061,52C1086.3,40,1112,32,1137,24C1162.1,16,1187,8,1213,12C1237.9,16,1263,32,1288,48C1313.7,64,1339,80,1364,74C1389.5,68,1415,40,1440,24C1465.3,8,1491,4,1516,18C1541.1,32,1566,64,1592,80C1616.8,96,1642,96,1667,94C1692.6,92,1718,88,1743,72C1768.4,56,1794,28,1806,14L1818.9,0L1818.9,120L1806.3,120C1793.7,120,1768,120,1743,120C1717.9,120,1693,120,1667,120C1642.1,120,1617,120,1592,120C1566.3,120,1541,120,1516,120C1490.5,120,1465,120,1440,120C1414.7,120,1389,120,1364,120C1338.9,120,1314,120,1288,120C1263.2,120,1238,120,1213,120C1187.4,120,1162,120,1137,120C1111.6,120,1086,120,1061,120C1035.8,120,1011,120,985,120C960,120,935,120,909,120C884.2,120,859,120,834,120C808.4,120,783,120,758,120C732.6,120,707,120,682,120C656.8,120,632,120,606,120C581.1,120,556,120,531,120C505.3,120,480,120,455,120C429.5,120,404,120,379,120C353.7,120,328,120,303,120C277.9,120,253,120,227,120C202.1,120,177,120,152,120C126.3,120,101,120,76,120C50.5,120,25,120,13,120L0,120Z"/></svg>            
            