<?xml version="1.0" standalone="no"?>
<svg xmlns:xlink="http://www.w3.org/1999/xlink" id="wave" style="transform:rotate(0deg); transition: 0.3s" viewBox="0 0 1440 150" version="1.1" xmlns="http://www.w3.org/2000/svg"><defs><linearGradient id="sw-gradient-0" x1="0" x2="0" y1="1" y2="0"><stop stop-color="rgba(0, 0, 0, 1)" offset="0%"/><stop stop-color="rgba(0, 0, 0, 1)" offset="100%"/></linearGradient></defs><path style="transform:translate(0, 0px); opacity:1" fill="url(#sw-gradient-0)" d="M0,75L21.8,67.5C43.6,60,87,45,131,55C174.5,65,218,100,262,100C305.5,100,349,65,393,45C436.4,25,480,20,524,20C567.3,20,611,25,655,42.5C698.2,60,742,90,785,95C829.1,100,873,80,916,75C960,70,1004,80,1047,77.5C1090.9,75,1135,60,1178,45C1221.8,30,1265,15,1309,15C1352.7,15,1396,30,1440,50C1483.6,70,1527,95,1571,110C1614.5,125,1658,130,1702,110C1745.5,90,1789,45,1833,37.5C1876.4,30,1920,60,1964,65C2007.3,70,2051,50,2095,50C2138.2,50,2182,70,2225,77.5C2269.1,85,2313,80,2356,67.5C2400,55,2444,35,2487,22.5C2530.9,10,2575,5,2618,22.5C2661.8,40,2705,80,2749,85C2792.7,90,2836,60,2880,47.5C2923.6,35,2967,40,3011,40C3054.5,40,3098,35,3120,32.5L3141.8,30L3141.8,150L3120,150C3098.2,150,3055,150,3011,150C2967.3,150,2924,150,2880,150C2836.4,150,2793,150,2749,150C2705.5,150,2662,150,2618,150C2574.5,150,2531,150,2487,150C2443.6,150,2400,150,2356,150C2312.7,150,2269,150,2225,150C2181.8,150,2138,150,2095,150C2050.9,150,2007,150,1964,150C1920,150,1876,150,1833,150C1789.1,150,1745,150,1702,150C1658.2,150,1615,150,1571,150C1527.3,150,1484,150,1440,150C1396.4,150,1353,150,1309,150C1265.5,150,1222,150,1178,150C1134.5,150,1091,150,1047,150C1003.6,150,960,150,916,150C872.7,150,829,150,785,150C741.8,150,698,150,655,150C610.9,150,567,150,524,150C480,150,436,150,393,150C349.1,150,305,150,262,150C218.2,150,175,150,131,150C87.3,150,44,150,22,150L0,150Z"/></svg>